<svg id="Layer_1" data-name="Layer 1" xmlns="http://www.w3.org/2000/svg" viewBox="0 0 511.42 511.52"><defs><style>.cls-1{fill:#fff;}.cls-2{fill:#808184;}.cls-3{fill:#231f20;}</style></defs><title>favicon</title><path class="cls-1" d="M511.17,302.88l-39.32,97-55.19-8.73a208.25,208.25,0,0,1-23.17,23.47L403,469.73l-96.44,40.8-33.22-45.81a201.84,201.84,0,0,1-32,0l-32.77,46.57-97-39.41,9.16-58A210.94,210.94,0,0,1,100.1,393l-58.33,10.1L1,306.61l49.54-36a202.61,202.61,0,0,1,.06-26.55L.25,208.64l39.32-97,61.72,9.78a206.59,206.59,0,0,1,17.79-18.05L108.37,41.78,204.82,1l36.31,50a200.41,200.41,0,0,1,23.65-.59l2.62.16L302.88.25l97,39.41-9.35,58.77a207.44,207.44,0,0,1,20.93,20.1l58.17-10.06,40.79,96.43-46.22,33.58a204.37,204.37,0,0,1,.55,31.61v.08Zm-54.4,70.34,25-61.7L439.86,282l1-13.48a180.94,180.94,0,0,0-1-32.45l-1.19-8.65,42.27-30.71L455,135.37l-53.83,9.3-4.33-6.5a181.14,181.14,0,0,0-22.76-22.27l-9.44-7.2,8.59-54L311.5,29.66,279.3,75.35l-15.65-1c-1.71,0-3.78-.07-5.84-.07-5,0-10,.2-14.7.6L229.9,76.37,196.6,30.52,135.29,56.46,145.12,113l-5.63,4.43a182.22,182.22,0,0,0-22.32,22.3l-6,7.53-56.54-9L29.65,200l45.46,32L75,239.82a177.8,177.8,0,0,0-.21,33.94l.83,8.3L30.52,314.83l25.93,61.32,53.64-9.29,7.22,9.3a187.17,187.17,0,0,0,23.89,23.52l1.08,1,4.09,4.28-.85,5.94-7.23,45.87L200,481.85l29.8-42.39,12.72,1.23a184,184,0,0,0,33.88-.32l8-1.34,30.44,42,61.31-25.93-8.7-50.2L378,396.35A183.48,183.48,0,0,0,401.35,372l5-6.76Z"/><path class="cls-1" d="M481.77,311.52l-25,61.7-50.38-8-5,6.76A183.48,183.48,0,0,1,378,396.35l-10.51,8.51,8.7,50.2L314.83,481l-30.44-42-8,1.34a184,184,0,0,1-33.88.32l-12.72-1.23L200,481.85l-61.7-25.07,7.23-45.87.85-5.94-4.09-4.28-1.08-1a187.17,187.17,0,0,1-23.89-23.52l-7.22-9.3-53.64,9.29L30.52,314.83l45.14-32.77-.83-8.3A177.8,177.8,0,0,1,75,239.82l.07-7.81L29.65,200l25-61.69,56.54,9,6-7.53a182.22,182.22,0,0,1,22.32-22.3l5.63-4.43-9.83-56.54L196.6,30.52l33.3,45.85,13.21-1.47c4.74-.4,9.68-.6,14.7-.6,2.06,0,4.13,0,5.84.07l15.65,1,32.2-45.69,61.7,25.07-8.59,54,9.44,7.2a181.14,181.14,0,0,1,22.76,22.27l4.33,6.5,53.83-9.3,25.94,61.32L438.64,227.4l1.19,8.65a180.94,180.94,0,0,1,1,32.45l-1,13.48Z"/><path d="M208.63,511.27l-97-39.42,9.15-58A211.94,211.94,0,0,1,100.1,393l-58.33,10.1L1,306.61l49.55-36a202.61,202.61,0,0,1,.06-26.55L.25,208.64l39.32-97,61.71,9.78a209.54,209.54,0,0,1,17.8-18.05L108.37,41.78,204.82,1l36.31,50a198.23,198.23,0,0,1,23.65-.58l2.62.15L302.87.25l97,39.41-9.35,58.77a207.44,207.44,0,0,1,20.93,20.1l58.17-10.06,40.79,96.43-46.22,33.58a203.11,203.11,0,0,1,.54,31.61v.08l46.41,32.71-39.32,97-55.19-8.73a208.25,208.25,0,0,1-23.17,23.47L403,469.73l-96.45,40.8-33.22-45.81a200.66,200.66,0,0,1-32,0l-32.76,46.58Zm-70.35-54.49L200,481.85l29.81-42.39,12.72,1.24a185.8,185.8,0,0,0,33.88-.32l8-1.35,30.44,42,61.31-25.93-8.7-50.2L378,396.35A182.79,182.79,0,0,0,401.34,372l5.05-6.76,50.37,8,25-61.7L439.86,282l1-13.48a180.94,180.94,0,0,0-1-32.45l-1.19-8.65,42.27-30.71L455,135.37l-53.83,9.3-4.34-6.5a181.72,181.72,0,0,0-22.75-22.27l-9.44-7.2,8.59-54L311.5,29.66,279.3,75.35l-15.66-1c-1.71,0-3.77-.07-5.83-.07-5,0-10,.2-14.7.61l-13.22,1.46L196.6,30.52,135.28,56.46,145.12,113l-5.63,4.43a183,183,0,0,0-22.33,22.3l-6,7.54-56.54-9L29.65,200l45.46,32-.07,7.8a178.61,178.61,0,0,0-.22,33.94l.84,8.3L30.51,314.83l25.94,61.32,53.64-9.29,7.21,9.3a187.91,187.91,0,0,0,23.9,23.52l1.08,1,4.09,4.28-.85,5.94-7.24,45.87Z"/><polygon class="cls-2" points="253.1 257.3 213.75 257.3 185.91 297.24 259.09 297.24 177.93 411.49 234.71 411.49 319.8 264.11 248.98 264.11 253.1 257.3"/><path class="cls-3" d="M389.09,251.89q28.5,26.63,28.5,65.38v14.87H387.72V317.27q0-24.63-17.5-42.13a57.21,57.21,0,0,0-42.13-17.5H149.22v74.5H119.47V227.77H365.34a22.32,22.32,0,1,0,0-44.63H119.47V153.27H365.34a52.48,52.48,0,0,1,52.25,52.12A51.21,51.21,0,0,1,409.72,233,52.22,52.22,0,0,1,389.09,251.89Z"/><polygon class="cls-2" points="261.66 149.59 280.66 161.29 249.15 206.51 234.57 227.72 271.17 227.72 283.82 206.51 302.9 174.97 321.46 186.38 333.49 100.03 261.66 149.59"/></svg>